grf
version=1
nRows=11
nColumns=37
inDegrees=no
endheader
time	ground_force_1_vx	ground_force_1_vy	ground_force_1_vz	ground_force_1_px	ground_force_1_py	ground_force_1_pz	ground_moment_1_mx	ground_moment_1_my	ground_moment_1_mz	ground_force_2_vx	ground_force_2_vy	ground_force_2_vz	ground_force_2_px	ground_force_2_py	ground_force_2_pz	ground_moment_2_mx	ground_moment_2_my	ground_moment_2_mz	ground_force_3_vx	ground_force_3_vy	ground_force_3_vz	ground_force_3_px	ground_force_3_py	ground_force_3_pz	ground_moment_3_mx	ground_moment_3_my	ground_moment_3_mz	ground_force_4_vx	ground_force_4_vy	ground_force_4_vz	ground_force_4_px	ground_force_4_py	ground_force_4_pz	ground_moment_4_mx	ground_moment_4_my	ground_moment_4_mz
      0.00000000	      0.00000000	     -0.00000000	      0.00000000	      0.00000000	      0.00000000	      0.00000000	      0.00000000	      0.00000000	      0.00000000	     -5.32623959	     16.75651550	   -328.92974854	   -293.10270180	  -1021.37164989	      0.00000000	      0.00000000	      0.00000000	   2813.71742848	      4.94191656	    -15.31266351	   -446.95758057	   -338.31025855	   -797.96083485	      0.00000000	      0.00000000	     -0.00000000	  -3116.18540919	      0.00000000	     -0.00000000	      0.00000000	      0.00000000	      0.00000000	      0.00000000	      0.00000000	      0.00000000	      0.00000000
      0.01000000	      0.00000000	     -0.00000000	      0.00000000	      0.00000000	      0.00000000	      0.00000000	      0.00000000	      0.00000000	      0.00000000	     -5.54072666	     16.83597946	   -326.83468628	   -293.54961675	  -1018.01481225	      0.00000000	      0.00000000	      0.00000000	   2752.02411149	      4.66034948	    -15.05122416	   -444.67474365	   -338.65148631	   -799.74762614	      0.00000000	      0.00000000	     -0.00000000	  -2864.81584631	      0.00000000	     -0.00000000	      0.00000000	      0.00000000	      0.00000000	      0.00000000	      0.00000000	      0.00000000	      0.00000000
      0.02000000	      0.00000000	     -0.00000000	      0.00000000	      0.00000000	      0.00000000	      0.00000000	      0.00000000	      0.00000000	      0.00000000	     -5.32598591	     16.91624069	   -328.14089966	   -293.12482496	  -1019.34147564	      0.00000000	      0.00000000	      0.00000000	   2831.54951095	      4.52424872	    -14.95238916	   -444.57290649	   -338.30736343	   -798.81911942	      0.00000000	      0.00000000	     -0.00000000	  -2863.44827331	      0.00000000	     -0.00000000	      0.00000000	      0.00000000	      0.00000000	      0.00000000	      0.00000000	      0.00000000	      0.00000000
      0.03000000	      0.00000000	     -0.00000000	      0.00000000	      0.00000000	      0.00000000	      0.00000000	      0.00000000	      0.00000000	      0.00000000	     -5.20097542	     16.76544571	   -327.43310547	   -293.60904541	  -1017.60179575	      0.00000000	      0.00000000	      0.00000000	   2770.58154248	      5.34251462	    -15.20122098	   -444.12084961	   -338.20597080	   -798.35640435	      0.00000000	      0.00000000	     -0.00000000	  -3091.22497556	      0.00000000	     -0.00000000	      0.00000000	      0.00000000	      0.00000000	      0.00000000	      0.00000000	      0.00000000	      0.00000000
      0.04000000	      0.00000000	     -0.00000000	      0.00000000	      0.00000000	      0.00000000	      0.00000000	      0.00000000	      0.00000000	      0.00000000	     -5.23654652	     16.51597404	   -328.98928833	   -293.05241467	  -1020.10183101	      0.00000000	      0.00000000	      0.00000000	   2717.30368353	      5.22432195	    -15.12214992	   -442.86587524	   -337.69758161	   -798.48149218	      0.00000000	      0.00000000	     -0.00000000	  -3085.07731125	      0.00000000	     -0.00000000	      0.00000000	      0.00000000	      0.00000000	      0.00000000	      0.00000000	      0.00000000	      0.00000000
      0.05000000	      0.00000000	     -0.00000000	      0.00000000	      0.00000000	      0.00000000	      0.00000000	      0.00000000	      0.00000000	      0.00000000	     -5.29041433	     16.89136505	   -329.12197876	   -292.91981386	  -1019.47115438	      0.00000000	      0.00000000	      0.00000000	   2773.26570241	      4.96780265	    -14.90920778	   -442.75564575	   -337.80624302	   -798.28804560	      0.00000000	      0.00000000	     -0.00000000	  -2994.12739927	      0.00000000	     -0.00000000	      0.00000000	      0.00000000	      0.00000000	      0.00000000	      0.00000000	      0.00000000	      0.00000000
      0.06000000	      0.00000000	     -0.00000000	      0.00000000	      0.00000000	      0.00000000	      0.00000000	      0.00000000	      0.00000000	      0.00000000	     -4.96083212	     16.89985085	   -328.07318115	   -293.16074209	  -1018.16774729	      0.00000000	      0.00000000	      0.00000000	   2891.37173348	      4.70167028	    -15.10296004	   -440.35009766	   -337.96790718	   -798.86222345	      0.00000000	      0.00000000	     -0.00000000	  -3095.17556711	      0.00000000	     -0.00000000	      0.00000000	      0.00000000	      0.00000000	      0.00000000	      0.00000000	      0.00000000	      0.00000000
      0.07000000	      0.00000000	     -0.00000000	      0.00000000	      0.00000000	      0.00000000	      0.00000000	      0.00000000	      0.00000000	      0.00000000	     -5.18652630	     16.97430611	   -329.30114746	   -293.31636860	  -1018.65584225	      0.00000000	      0.00000000	      0.00000000	   2757.49892485	      4.84260427	    -15.09330220	   -441.57156372	   -337.12017701	   -798.01716317	      0.00000000	      0.00000000	     -0.00000000	  -3091.18055254	      0.00000000	     -0.00000000	      0.00000000	      0.00000000	      0.00000000	      0.00000000	      0.00000000	      0.00000000	      0.00000000
      0.08000000	      0.00000000	     -0.00000000	      0.00000000	      0.00000000	      0.00000000	      0.00000000	      0.00000000	      0.00000000	      0.00000000	     -5.35977077	     17.14036942	   -329.62521362	   -292.99573907	  -1018.48097014	      0.00000000	      0.00000000	      0.00000000	   2607.24545732	      4.70984140	    -14.67999404	   -438.64010620	   -337.55960724	   -799.12729313	      0.00000000	      0.00000000	     -0.00000000	  -2937.68909147	      0.00000000	     -0.00000000	      0.00000000	      0.00000000	      0.00000000	      0.00000000	      0.00000000	      0.00000000	      0.00000000
      0.09000000	      0.00000000	     -0.00000000	      0.00000000	      0.00000000	      0.00000000	      0.00000000	      0.00000000	      0.00000000	      0.00000000	     -4.90657806	     17.07204056	   -330.60327148	   -292.44093975	  -1017.89134077	      0.00000000	      0.00000000	      0.00000000	   2918.95209292	      4.82515875	    -14.54623074	   -439.29421997	   -337.58130417	   -798.15379927	      0.00000000	      0.00000000	     -0.00000000	  -3012.33320568	      0.00000000	     -0.00000000	      0.00000000	      0.00000000	      0.00000000	      0.00000000	      0.00000000	      0.00000000	      0.00000000
      0.10000000	      0.00000000	     -0.00000000	      0.00000000	      0.00000000	      0.00000000	      0.00000000	      0.00000000	      0.00000000	      0.00000000	     -5.25704145	     17.68177795	   -331.06414795	   -293.25003802	  -1018.35931108	      0.00000000	      0.00000000	      0.00000000	   2671.04141292	      5.34974495	    -14.56569718	   -438.02026367	   -337.70646324	   -798.14431392	      0.00000000	      0.00000000	     -0.00000000	  -3073.26970285	      0.00000000	     -0.00000000	      0.00000000	      0.00000000	      0.00000000	      0.00000000	      0.00000000	      0.00000000	      0.00000000
